<mxfile host="app.diagrams.net" agent="Mozilla/5.0 (X11; Linux x86_64; rv:139.0) Gecko/20100101 Firefox/139.0" version="27.1.4">
  <diagram name="Página-1" id="2JlxsUcK506kuZC1OdT-">
    <mxGraphModel dx="2852" dy="3162" grid="1" gridSize="10" guides="1" tooltips="1" connect="1" arrows="1" fold="1" page="1" pageScale="1" pageWidth="2336" pageHeight="1654" math="0" shadow="0">
      <root>
        <mxCell id="0" />
        <mxCell id="1" parent="0" />
        <mxCell id="nODUgDwTMb5YsEz3XIjn-7" style="edgeStyle=orthogonalEdgeStyle;rounded=0;orthogonalLoop=1;jettySize=auto;html=1;entryX=0;entryY=0.5;entryDx=0;entryDy=0;" parent="1" source="nODUgDwTMb5YsEz3XIjn-1" target="nODUgDwTMb5YsEz3XIjn-6" edge="1">
          <mxGeometry relative="1" as="geometry">
            <Array as="points">
              <mxPoint x="470" y="-788" />
              <mxPoint x="470" y="-788" />
            </Array>
          </mxGeometry>
        </mxCell>
        <mxCell id="nODUgDwTMb5YsEz3XIjn-8" style="edgeStyle=orthogonalEdgeStyle;rounded=0;orthogonalLoop=1;jettySize=auto;html=1;entryX=0;entryY=0.5;entryDx=0;entryDy=0;" parent="1" source="nODUgDwTMb5YsEz3XIjn-1" target="nODUgDwTMb5YsEz3XIjn-2" edge="1">
          <mxGeometry relative="1" as="geometry" />
        </mxCell>
        <mxCell id="nODUgDwTMb5YsEz3XIjn-9" style="edgeStyle=orthogonalEdgeStyle;rounded=0;orthogonalLoop=1;jettySize=auto;html=1;entryX=0;entryY=0.5;entryDx=0;entryDy=0;" parent="1" source="nODUgDwTMb5YsEz3XIjn-1" target="nODUgDwTMb5YsEz3XIjn-4" edge="1">
          <mxGeometry relative="1" as="geometry">
            <Array as="points">
              <mxPoint x="330" y="-788" />
              <mxPoint x="330" y="-508" />
            </Array>
          </mxGeometry>
        </mxCell>
        <mxCell id="nODUgDwTMb5YsEz3XIjn-20" style="edgeStyle=orthogonalEdgeStyle;rounded=0;orthogonalLoop=1;jettySize=auto;html=1;entryX=0;entryY=0.5;entryDx=0;entryDy=0;" parent="1" source="nODUgDwTMb5YsEz3XIjn-1" target="nODUgDwTMb5YsEz3XIjn-19" edge="1">
          <mxGeometry relative="1" as="geometry" />
        </mxCell>
        <mxCell id="nODUgDwTMb5YsEz3XIjn-1" value="Jogador" style="shape=umlActor;verticalLabelPosition=bottom;verticalAlign=top;html=1;strokeColor=default;fillColor=default;" parent="1" vertex="1">
          <mxGeometry x="140" y="-818" width="30" height="60" as="geometry" />
        </mxCell>
        <mxCell id="nODUgDwTMb5YsEz3XIjn-2" value="Fazer Advinhação" style="ellipse;whiteSpace=wrap;html=1;" parent="1" vertex="1">
          <mxGeometry x="490" y="-1098" width="120" height="60" as="geometry" />
        </mxCell>
        <mxCell id="nODUgDwTMb5YsEz3XIjn-4" value="&lt;div&gt;Exibir Estado&lt;/div&gt;&lt;div&gt;do Jogo&lt;/div&gt;" style="ellipse;whiteSpace=wrap;html=1;" parent="1" vertex="1">
          <mxGeometry x="490" y="-538" width="120" height="60" as="geometry" />
        </mxCell>
        <mxCell id="nODUgDwTMb5YsEz3XIjn-6" value="Iniciar Jogo" style="ellipse;whiteSpace=wrap;html=1;" parent="1" vertex="1">
          <mxGeometry x="490" y="-818" width="120" height="60" as="geometry" />
        </mxCell>
        <mxCell id="nODUgDwTMb5YsEz3XIjn-17" style="edgeStyle=orthogonalEdgeStyle;rounded=0;orthogonalLoop=1;jettySize=auto;html=1;entryX=1;entryY=0.5;entryDx=0;entryDy=0;" parent="1" source="nODUgDwTMb5YsEz3XIjn-10" target="nODUgDwTMb5YsEz3XIjn-6" edge="1">
          <mxGeometry relative="1" as="geometry" />
        </mxCell>
        <mxCell id="nODUgDwTMb5YsEz3XIjn-10" value="&lt;div&gt;Iniciar Jogo&lt;/div&gt;&lt;div&gt;do Zero&lt;/div&gt;" style="ellipse;whiteSpace=wrap;html=1;" parent="1" vertex="1">
          <mxGeometry x="670" y="-838" width="120" height="60" as="geometry" />
        </mxCell>
        <mxCell id="nODUgDwTMb5YsEz3XIjn-18" style="edgeStyle=orthogonalEdgeStyle;rounded=0;orthogonalLoop=1;jettySize=auto;html=1;entryX=1;entryY=1;entryDx=0;entryDy=0;" parent="1" source="nODUgDwTMb5YsEz3XIjn-11" target="nODUgDwTMb5YsEz3XIjn-6" edge="1">
          <mxGeometry relative="1" as="geometry" />
        </mxCell>
        <mxCell id="nODUgDwTMb5YsEz3XIjn-11" value="&lt;div&gt;Iniciar Jogo&lt;/div&gt;&lt;div&gt;Anterior&lt;/div&gt;" style="ellipse;whiteSpace=wrap;html=1;" parent="1" vertex="1">
          <mxGeometry x="660" y="-758" width="120" height="60" as="geometry" />
        </mxCell>
        <mxCell id="nODUgDwTMb5YsEz3XIjn-12" value="&amp;lt;&amp;lt;include&amp;gt;&amp;gt;" style="endArrow=open;endSize=12;dashed=1;html=1;rounded=0;exitX=0.5;exitY=1;exitDx=0;exitDy=0;entryX=0.5;entryY=0;entryDx=0;entryDy=0;" parent="1" source="nODUgDwTMb5YsEz3XIjn-2" target="nODUgDwTMb5YsEz3XIjn-6" edge="1">
          <mxGeometry width="160" relative="1" as="geometry">
            <mxPoint x="550" y="-888" as="sourcePoint" />
            <mxPoint x="710" y="-888" as="targetPoint" />
          </mxGeometry>
        </mxCell>
        <mxCell id="nODUgDwTMb5YsEz3XIjn-13" value="&amp;lt;&amp;lt;include&amp;gt;&amp;gt;" style="endArrow=open;endSize=12;dashed=1;html=1;rounded=0;exitX=0.5;exitY=0;exitDx=0;exitDy=0;entryX=0.5;entryY=1;entryDx=0;entryDy=0;" parent="1" source="nODUgDwTMb5YsEz3XIjn-4" target="nODUgDwTMb5YsEz3XIjn-6" edge="1">
          <mxGeometry width="160" relative="1" as="geometry">
            <mxPoint x="609.1700000000001" y="-678" as="sourcePoint" />
            <mxPoint x="609.1700000000001" y="-458" as="targetPoint" />
          </mxGeometry>
        </mxCell>
        <mxCell id="nODUgDwTMb5YsEz3XIjn-19" value="Sair do Jogo" style="ellipse;whiteSpace=wrap;html=1;" parent="1" vertex="1">
          <mxGeometry x="490" y="-328" width="120" height="60" as="geometry" />
        </mxCell>
        <mxCell id="nODUgDwTMb5YsEz3XIjn-23" style="edgeStyle=orthogonalEdgeStyle;rounded=0;orthogonalLoop=1;jettySize=auto;html=1;entryX=1;entryY=0.5;entryDx=0;entryDy=0;" parent="1" source="nODUgDwTMb5YsEz3XIjn-21" target="nODUgDwTMb5YsEz3XIjn-19" edge="1">
          <mxGeometry relative="1" as="geometry" />
        </mxCell>
        <mxCell id="nODUgDwTMb5YsEz3XIjn-21" value="&lt;div&gt;Sair do Jogo&amp;nbsp;&lt;/div&gt;&lt;div&gt;em Andamento&lt;/div&gt;" style="ellipse;whiteSpace=wrap;html=1;" parent="1" vertex="1">
          <mxGeometry x="680" y="-348" width="120" height="60" as="geometry" />
        </mxCell>
        <mxCell id="nODUgDwTMb5YsEz3XIjn-24" style="edgeStyle=orthogonalEdgeStyle;rounded=0;orthogonalLoop=1;jettySize=auto;html=1;entryX=1;entryY=1;entryDx=0;entryDy=0;" parent="1" source="nODUgDwTMb5YsEz3XIjn-22" target="nODUgDwTMb5YsEz3XIjn-19" edge="1">
          <mxGeometry relative="1" as="geometry" />
        </mxCell>
        <mxCell id="nODUgDwTMb5YsEz3XIjn-22" value="&lt;div&gt;Sair do Jogo&amp;nbsp;&lt;/div&gt;&lt;div&gt;Finalizado / Não Começado&lt;/div&gt;" style="ellipse;whiteSpace=wrap;html=1;" parent="1" vertex="1">
          <mxGeometry x="670" y="-268" width="120" height="60" as="geometry" />
        </mxCell>
        <mxCell id="nODUgDwTMb5YsEz3XIjn-25" value="&amp;lt;&amp;lt;include&amp;gt;&amp;gt;" style="endArrow=open;endSize=12;dashed=1;html=1;rounded=0;exitX=0.5;exitY=0;exitDx=0;exitDy=0;entryX=0.7;entryY=0.933;entryDx=0;entryDy=0;entryPerimeter=0;" parent="1" source="nODUgDwTMb5YsEz3XIjn-21" target="nODUgDwTMb5YsEz3XIjn-6" edge="1">
          <mxGeometry width="160" relative="1" as="geometry">
            <mxPoint x="739.5" y="-388" as="sourcePoint" />
            <mxPoint x="580" y="-748" as="targetPoint" />
          </mxGeometry>
        </mxCell>
        <mxCell id="nODUgDwTMb5YsEz3XIjn-26" value="&lt;div&gt;Salvar Estado&lt;/div&gt;&lt;div&gt;do Jogo&lt;/div&gt;" style="ellipse;whiteSpace=wrap;html=1;" parent="1" vertex="1">
          <mxGeometry x="920" y="-288" width="120" height="60" as="geometry" />
        </mxCell>
        <mxCell id="nODUgDwTMb5YsEz3XIjn-27" value="&amp;lt;&amp;lt;extends&amp;gt;&amp;gt;" style="endArrow=open;endSize=12;dashed=1;html=1;rounded=0;entryX=1;entryY=0.5;entryDx=0;entryDy=0;exitX=0;exitY=0;exitDx=0;exitDy=0;" parent="1" source="nODUgDwTMb5YsEz3XIjn-26" target="nODUgDwTMb5YsEz3XIjn-21" edge="1">
          <mxGeometry x="-0.1533" y="-2" width="160" relative="1" as="geometry">
            <mxPoint x="780" y="-458" as="sourcePoint" />
            <mxPoint x="917.5735931288073" y="-379.21320343559637" as="targetPoint" />
            <mxPoint x="1" as="offset" />
          </mxGeometry>
        </mxCell>
        <mxCell id="nODUgDwTMb5YsEz3XIjn-29" value="&lt;div&gt;Escolher Palavra&lt;/div&gt;&lt;div&gt;Aleatoriamente&lt;/div&gt;" style="ellipse;whiteSpace=wrap;html=1;" parent="1" vertex="1">
          <mxGeometry x="800" y="-928" width="120" height="60" as="geometry" />
        </mxCell>
        <mxCell id="nODUgDwTMb5YsEz3XIjn-30" value="&amp;lt;&amp;lt;include&amp;gt;&amp;gt;" style="endArrow=open;endSize=12;dashed=1;html=1;rounded=0;exitX=0.5;exitY=1;exitDx=0;exitDy=0;entryX=0.5;entryY=0;entryDx=0;entryDy=0;" parent="1" source="nODUgDwTMb5YsEz3XIjn-11" target="nODUgDwTMb5YsEz3XIjn-26" edge="1">
          <mxGeometry width="160" relative="1" as="geometry">
            <mxPoint x="1246" y="-328" as="sourcePoint" />
            <mxPoint x="980" y="-298" as="targetPoint" />
          </mxGeometry>
        </mxCell>
        <mxCell id="nODUgDwTMb5YsEz3XIjn-31" value="&amp;lt;&amp;lt;include&amp;gt;&amp;gt;" style="endArrow=open;endSize=12;dashed=1;html=1;rounded=0;exitX=0.5;exitY=0;exitDx=0;exitDy=0;entryX=0.1;entryY=0.883;entryDx=0;entryDy=0;entryPerimeter=0;" parent="1" source="nODUgDwTMb5YsEz3XIjn-10" target="nODUgDwTMb5YsEz3XIjn-29" edge="1">
          <mxGeometry x="-0.0019" width="160" relative="1" as="geometry">
            <mxPoint x="1017.5735931288073" y="-777.9967965644037" as="sourcePoint" />
            <mxPoint x="850" y="-828" as="targetPoint" />
            <mxPoint as="offset" />
          </mxGeometry>
        </mxCell>
        <mxCell id="nODUgDwTMb5YsEz3XIjn-34" value="&amp;lt;&amp;lt;include&amp;gt;&amp;gt;" style="endArrow=open;endSize=12;dashed=1;html=1;rounded=0;exitX=1;exitY=0.5;exitDx=0;exitDy=0;entryX=0;entryY=0.5;entryDx=0;entryDy=0;" parent="1" source="nODUgDwTMb5YsEz3XIjn-89" target="nODUgDwTMb5YsEz3XIjn-64" edge="1">
          <mxGeometry x="0.0026" width="160" relative="1" as="geometry">
            <mxPoint x="870" y="-1008" as="sourcePoint" />
            <mxPoint x="859.9999999999945" y="-1108" as="targetPoint" />
            <mxPoint as="offset" />
          </mxGeometry>
        </mxCell>
        <mxCell id="nODUgDwTMb5YsEz3XIjn-36" value="&lt;div&gt;Validar Letra&lt;/div&gt;&lt;div&gt;Escolhida&lt;/div&gt;" style="ellipse;whiteSpace=wrap;html=1;" parent="1" vertex="1">
          <mxGeometry x="1110" y="-1238" width="120" height="60" as="geometry" />
        </mxCell>
        <mxCell id="nODUgDwTMb5YsEz3XIjn-39" value="&amp;nbsp;" style="text;whiteSpace=wrap;html=1;" parent="1" vertex="1">
          <mxGeometry x="1295" y="-978" width="40" height="40" as="geometry" />
        </mxCell>
        <mxCell id="nODUgDwTMb5YsEz3XIjn-46" value="&lt;div&gt;Verificar se Está&lt;/div&gt;&lt;div&gt;na Palavra Escolhida&lt;/div&gt;" style="ellipse;whiteSpace=wrap;html=1;" parent="1" vertex="1">
          <mxGeometry x="1370" y="-1188" width="140" height="70" as="geometry" />
        </mxCell>
        <mxCell id="nODUgDwTMb5YsEz3XIjn-47" value="&lt;div&gt;Atualizar a Palavra&lt;/div&gt;&lt;div&gt;com a Letra&lt;/div&gt;" style="ellipse;whiteSpace=wrap;html=1;" parent="1" vertex="1">
          <mxGeometry x="1235" y="-908" width="120" height="60" as="geometry" />
        </mxCell>
        <mxCell id="nODUgDwTMb5YsEz3XIjn-48" value="&amp;lt;&amp;lt;extends&amp;gt;&amp;gt;" style="endArrow=open;endSize=12;dashed=1;html=1;rounded=0;entryX=0.5;entryY=0;entryDx=0;entryDy=0;" parent="1" target="nODUgDwTMb5YsEz3XIjn-36" edge="1">
          <mxGeometry x="-0.1533" y="-2" width="160" relative="1" as="geometry">
            <mxPoint x="940" y="-1168" as="sourcePoint" />
            <mxPoint x="1200" y="-1248" as="targetPoint" />
            <mxPoint x="1" as="offset" />
            <Array as="points">
              <mxPoint x="940" y="-1368" />
              <mxPoint x="1170" y="-1368" />
            </Array>
          </mxGeometry>
        </mxCell>
        <mxCell id="nODUgDwTMb5YsEz3XIjn-51" value="&lt;div&gt;Letra escolhida&lt;/div&gt;&lt;div&gt;NÃO é válida&lt;/div&gt;" style="shape=note;whiteSpace=wrap;html=1;backgroundOutline=1;darkOpacity=0.05;size=13;" parent="1" vertex="1">
          <mxGeometry x="1040" y="-1328" width="110" height="60" as="geometry" />
        </mxCell>
        <mxCell id="nODUgDwTMb5YsEz3XIjn-53" value="&amp;lt;&amp;lt;extends&amp;gt;&amp;gt;" style="endArrow=open;endSize=12;dashed=1;html=1;rounded=0;entryX=0.999;entryY=0.593;entryDx=0;entryDy=0;exitX=-0.007;exitY=0.447;exitDx=0;exitDy=0;entryPerimeter=0;exitPerimeter=0;" parent="1" source="nODUgDwTMb5YsEz3XIjn-46" target="nODUgDwTMb5YsEz3XIjn-36" edge="1">
          <mxGeometry x="-0.1533" y="-2" width="160" relative="1" as="geometry">
            <mxPoint x="1480" y="-1267.5" as="sourcePoint" />
            <mxPoint x="1333" y="-1178.5" as="targetPoint" />
            <mxPoint x="1" as="offset" />
          </mxGeometry>
        </mxCell>
        <mxCell id="nODUgDwTMb5YsEz3XIjn-54" value="&lt;div&gt;Letra escolhida&lt;/div&gt;&lt;div&gt;é válida&lt;/div&gt;" style="shape=note;whiteSpace=wrap;html=1;backgroundOutline=1;darkOpacity=0.05;size=13;" parent="1" vertex="1">
          <mxGeometry x="1270" y="-1278" width="110" height="60" as="geometry" />
        </mxCell>
        <mxCell id="nODUgDwTMb5YsEz3XIjn-57" value="&amp;lt;&amp;lt;extends&amp;gt;&amp;gt;" style="endArrow=open;endSize=12;dashed=1;html=1;rounded=0;entryX=1;entryY=1;entryDx=0;entryDy=0;exitX=0.5;exitY=0;exitDx=0;exitDy=0;" parent="1" source="nODUgDwTMb5YsEz3XIjn-70" target="nODUgDwTMb5YsEz3XIjn-46" edge="1">
          <mxGeometry x="-0.1533" y="-2" width="160" relative="1" as="geometry">
            <mxPoint x="1415" y="-978" as="sourcePoint" />
            <mxPoint x="1374.9999999999995" y="-1108" as="targetPoint" />
            <mxPoint x="1" as="offset" />
          </mxGeometry>
        </mxCell>
        <mxCell id="nODUgDwTMb5YsEz3XIjn-58" value="Verificar Tentativas Restantes" style="ellipse;whiteSpace=wrap;html=1;" parent="1" vertex="1">
          <mxGeometry x="1715" y="-848" width="120" height="60" as="geometry" />
        </mxCell>
        <mxCell id="nODUgDwTMb5YsEz3XIjn-59" value="Finalizar Jogo" style="ellipse;whiteSpace=wrap;html=1;" parent="1" vertex="1">
          <mxGeometry x="1645" y="-568" width="120" height="60" as="geometry" />
        </mxCell>
        <mxCell id="nODUgDwTMb5YsEz3XIjn-61" value="&amp;lt;&amp;lt;extends&amp;gt;&amp;gt;" style="endArrow=open;endSize=12;dashed=1;html=1;rounded=0;exitX=0.5;exitY=0;exitDx=0;exitDy=0;entryX=0.5;entryY=1;entryDx=0;entryDy=0;" parent="1" source="nODUgDwTMb5YsEz3XIjn-85" target="nODUgDwTMb5YsEz3XIjn-58" edge="1">
          <mxGeometry x="-0.1533" y="-2" width="160" relative="1" as="geometry">
            <mxPoint x="1625" y="-697.75" as="sourcePoint" />
            <mxPoint x="1719.8959235991433" y="-758.001262658471" as="targetPoint" />
            <mxPoint x="1" as="offset" />
          </mxGeometry>
        </mxCell>
        <mxCell id="nODUgDwTMb5YsEz3XIjn-62" value="&lt;font style=&quot;font-size: 10px;&quot;&gt;Tentativas == 1&lt;/font&gt;" style="shape=note;whiteSpace=wrap;html=1;backgroundOutline=1;darkOpacity=0.05;size=13;" parent="1" vertex="1">
          <mxGeometry x="1645" y="-768" width="100" height="50" as="geometry" />
        </mxCell>
        <mxCell id="nODUgDwTMb5YsEz3XIjn-64" value="&lt;div&gt;Pedir Letra ao&amp;nbsp;&lt;/div&gt;&lt;div&gt;Jogador&lt;/div&gt;" style="ellipse;whiteSpace=wrap;html=1;" parent="1" vertex="1">
          <mxGeometry x="880" y="-1178" width="120" height="60" as="geometry" />
        </mxCell>
        <mxCell id="nODUgDwTMb5YsEz3XIjn-65" value="&amp;lt;&amp;lt;include&amp;gt;&amp;gt;" style="endArrow=open;endSize=12;dashed=1;html=1;rounded=0;exitX=0.815;exitY=0.114;exitDx=0;exitDy=0;entryX=0;entryY=0.5;entryDx=0;entryDy=0;exitPerimeter=0;" parent="1" source="nODUgDwTMb5YsEz3XIjn-64" target="nODUgDwTMb5YsEz3XIjn-36" edge="1">
          <mxGeometry width="160" relative="1" as="geometry">
            <mxPoint x="1068" y="-1045" as="sourcePoint" />
            <mxPoint x="1212" y="-1098" as="targetPoint" />
          </mxGeometry>
        </mxCell>
        <mxCell id="nODUgDwTMb5YsEz3XIjn-66" value="&amp;lt;&amp;lt;extends&amp;gt;&amp;gt;" style="endArrow=open;endSize=12;dashed=1;html=1;rounded=0;entryX=0.5;entryY=1;entryDx=0;entryDy=0;exitX=0.5;exitY=0;exitDx=0;exitDy=0;" parent="1" source="nODUgDwTMb5YsEz3XIjn-72" target="nODUgDwTMb5YsEz3XIjn-46" edge="1">
          <mxGeometry x="-0.1533" y="-2" width="160" relative="1" as="geometry">
            <mxPoint x="1385" y="-968" as="sourcePoint" />
            <mxPoint x="1484.9495331691132" y="-1088.5308828826771" as="targetPoint" />
            <mxPoint x="1" as="offset" />
          </mxGeometry>
        </mxCell>
        <mxCell id="nODUgDwTMb5YsEz3XIjn-67" value="&lt;div&gt;Atualizar Lista de Letras Escolhidas&lt;/div&gt;" style="ellipse;whiteSpace=wrap;html=1;" parent="1" vertex="1">
          <mxGeometry x="1485" y="-818" width="120" height="60" as="geometry" />
        </mxCell>
        <mxCell id="nODUgDwTMb5YsEz3XIjn-68" value="Está na palavra" style="shape=note;whiteSpace=wrap;html=1;backgroundOutline=1;darkOpacity=0.05;size=13;" parent="1" vertex="1">
          <mxGeometry x="1270" y="-1108" width="110" height="40" as="geometry" />
        </mxCell>
        <mxCell id="nODUgDwTMb5YsEz3XIjn-70" value="Informar ao Jogador que Letra NÃO está na Palavra" style="ellipse;whiteSpace=wrap;html=1;" parent="1" vertex="1">
          <mxGeometry x="1495" y="-978" width="160" height="70" as="geometry" />
        </mxCell>
        <mxCell id="nODUgDwTMb5YsEz3XIjn-72" value="Informar ao Jogador que Letra está na Palavra" style="ellipse;whiteSpace=wrap;html=1;" parent="1" vertex="1">
          <mxGeometry x="1325" y="-1018" width="160" height="70" as="geometry" />
        </mxCell>
        <mxCell id="nODUgDwTMb5YsEz3XIjn-74" value="&amp;lt;&amp;lt;include&amp;gt;&amp;gt;" style="endArrow=open;endSize=12;dashed=1;html=1;rounded=0;exitX=0;exitY=1;exitDx=0;exitDy=0;entryX=0.5;entryY=0;entryDx=0;entryDy=0;" parent="1" source="nODUgDwTMb5YsEz3XIjn-72" target="nODUgDwTMb5YsEz3XIjn-47" edge="1">
          <mxGeometry x="-0.01" width="160" relative="1" as="geometry">
            <mxPoint x="1105" y="-731" as="sourcePoint" />
            <mxPoint x="1177" y="-788" as="targetPoint" />
            <mxPoint as="offset" />
          </mxGeometry>
        </mxCell>
        <mxCell id="nODUgDwTMb5YsEz3XIjn-75" value="&amp;lt;&amp;lt;include&amp;gt;&amp;gt;" style="endArrow=open;endSize=12;dashed=1;html=1;rounded=0;exitX=0.5;exitY=1;exitDx=0;exitDy=0;entryX=0.5;entryY=0;entryDx=0;entryDy=0;" parent="1" source="nODUgDwTMb5YsEz3XIjn-70" target="nODUgDwTMb5YsEz3XIjn-67" edge="1">
          <mxGeometry x="-0.0019" width="160" relative="1" as="geometry">
            <mxPoint x="1448" y="-898" as="sourcePoint" />
            <mxPoint x="1425" y="-838" as="targetPoint" />
            <mxPoint as="offset" />
          </mxGeometry>
        </mxCell>
        <mxCell id="nODUgDwTMb5YsEz3XIjn-77" value="&amp;lt;&amp;lt;include&amp;gt;&amp;gt;" style="endArrow=open;endSize=12;dashed=1;html=1;rounded=0;exitX=1;exitY=0.5;exitDx=0;exitDy=0;entryX=0;entryY=0.5;entryDx=0;entryDy=0;" parent="1" source="nODUgDwTMb5YsEz3XIjn-67" target="nODUgDwTMb5YsEz3XIjn-58" edge="1">
          <mxGeometry x="-0.0019" width="160" relative="1" as="geometry">
            <mxPoint x="1675" y="-828" as="sourcePoint" />
            <mxPoint x="1635" y="-738" as="targetPoint" />
            <mxPoint as="offset" />
          </mxGeometry>
        </mxCell>
        <mxCell id="nODUgDwTMb5YsEz3XIjn-78" value="&lt;div&gt;Verificar Se a&amp;nbsp;&lt;/div&gt;&lt;div&gt;Palavra está Completa&lt;/div&gt;" style="ellipse;whiteSpace=wrap;html=1;" parent="1" vertex="1">
          <mxGeometry x="1190" y="-778" width="150" height="60" as="geometry" />
        </mxCell>
        <mxCell id="nODUgDwTMb5YsEz3XIjn-79" value="&amp;lt;&amp;lt;include&amp;gt;&amp;gt;" style="endArrow=open;endSize=12;dashed=1;html=1;rounded=0;exitX=0.5;exitY=1;exitDx=0;exitDy=0;entryX=0.5;entryY=0;entryDx=0;entryDy=0;" parent="1" source="nODUgDwTMb5YsEz3XIjn-47" target="nODUgDwTMb5YsEz3XIjn-78" edge="1">
          <mxGeometry x="-0.0092" width="160" relative="1" as="geometry">
            <mxPoint x="1308" y="-808" as="sourcePoint" />
            <mxPoint x="1285" y="-748" as="targetPoint" />
            <mxPoint as="offset" />
          </mxGeometry>
        </mxCell>
        <mxCell id="nODUgDwTMb5YsEz3XIjn-80" value="&amp;lt;&amp;lt;extends&amp;gt;&amp;gt;" style="endArrow=open;endSize=12;dashed=1;html=1;rounded=0;entryX=1;entryY=0.5;entryDx=0;entryDy=0;exitX=0;exitY=0.5;exitDx=0;exitDy=0;" parent="1" source="nODUgDwTMb5YsEz3XIjn-67" target="nODUgDwTMb5YsEz3XIjn-78" edge="1">
          <mxGeometry x="-0.1533" y="-2" width="160" relative="1" as="geometry">
            <mxPoint x="1345" y="-598" as="sourcePoint" />
            <mxPoint x="1325" y="-698" as="targetPoint" />
            <mxPoint x="1" as="offset" />
          </mxGeometry>
        </mxCell>
        <mxCell id="nODUgDwTMb5YsEz3XIjn-81" value="Não está" style="shape=note;whiteSpace=wrap;html=1;backgroundOutline=1;darkOpacity=0.05;size=13;" parent="1" vertex="1">
          <mxGeometry x="1355" y="-828" width="70" height="40" as="geometry" />
        </mxCell>
        <mxCell id="nODUgDwTMb5YsEz3XIjn-82" value="Está completa" style="shape=note;whiteSpace=wrap;html=1;backgroundOutline=1;darkOpacity=0.05;size=13;" parent="1" vertex="1">
          <mxGeometry x="1230" y="-648" width="70" height="40" as="geometry" />
        </mxCell>
        <mxCell id="nODUgDwTMb5YsEz3XIjn-83" value="&lt;div&gt;Informa ao Jogador que&lt;/div&gt;&lt;div&gt;ele acertou a Palavra&lt;/div&gt;" style="ellipse;whiteSpace=wrap;html=1;" parent="1" vertex="1">
          <mxGeometry x="1345" y="-618" width="170" height="70" as="geometry" />
        </mxCell>
        <mxCell id="nODUgDwTMb5YsEz3XIjn-84" value="&amp;lt;&amp;lt;include&amp;gt;&amp;gt;" style="endArrow=open;endSize=12;dashed=1;html=1;rounded=0;exitX=0.5;exitY=1;exitDx=0;exitDy=0;entryX=0;entryY=0;entryDx=0;entryDy=0;" parent="1" source="nODUgDwTMb5YsEz3XIjn-78" target="nODUgDwTMb5YsEz3XIjn-83" edge="1">
          <mxGeometry x="-0.0019" width="160" relative="1" as="geometry">
            <mxPoint x="1305" y="-643" as="sourcePoint" />
            <mxPoint x="1445" y="-673" as="targetPoint" />
            <mxPoint as="offset" />
          </mxGeometry>
        </mxCell>
        <mxCell id="nODUgDwTMb5YsEz3XIjn-85" value="&lt;div&gt;Informa ao Jogador que&lt;/div&gt;&lt;div&gt;as tentativas acabaram&lt;/div&gt;" style="ellipse;whiteSpace=wrap;html=1;" parent="1" vertex="1">
          <mxGeometry x="1715" y="-718" width="170" height="70" as="geometry" />
        </mxCell>
        <mxCell id="nODUgDwTMb5YsEz3XIjn-86" value="&amp;lt;&amp;lt;include&amp;gt;&amp;gt;" style="endArrow=open;endSize=12;dashed=1;html=1;rounded=0;exitX=0.5;exitY=1;exitDx=0;exitDy=0;entryX=1;entryY=0;entryDx=0;entryDy=0;" parent="1" source="nODUgDwTMb5YsEz3XIjn-85" target="nODUgDwTMb5YsEz3XIjn-59" edge="1">
          <mxGeometry x="-0.0019" width="160" relative="1" as="geometry">
            <mxPoint x="1735" y="-648" as="sourcePoint" />
            <mxPoint x="1754.5600000000004" y="-579.3299999999999" as="targetPoint" />
            <mxPoint as="offset" />
          </mxGeometry>
        </mxCell>
        <mxCell id="nODUgDwTMb5YsEz3XIjn-87" value="&amp;lt;&amp;lt;include&amp;gt;&amp;gt;" style="endArrow=open;endSize=12;dashed=1;html=1;rounded=0;exitX=1;exitY=1;exitDx=0;exitDy=0;entryX=0;entryY=0.5;entryDx=0;entryDy=0;" parent="1" source="nODUgDwTMb5YsEz3XIjn-83" target="nODUgDwTMb5YsEz3XIjn-59" edge="1">
          <mxGeometry x="-0.0019" width="160" relative="1" as="geometry">
            <mxPoint x="1500" y="-508" as="sourcePoint" />
            <mxPoint x="1455" y="-418" as="targetPoint" />
            <mxPoint as="offset" />
          </mxGeometry>
        </mxCell>
        <mxCell id="nODUgDwTMb5YsEz3XIjn-88" value="NÃO está na palavra" style="shape=note;whiteSpace=wrap;html=1;backgroundOutline=1;darkOpacity=0.05;size=13;" parent="1" vertex="1">
          <mxGeometry x="1580" y="-1078" width="110" height="40" as="geometry" />
        </mxCell>
        <mxCell id="nODUgDwTMb5YsEz3XIjn-91" style="edgeStyle=orthogonalEdgeStyle;rounded=0;orthogonalLoop=1;jettySize=auto;html=1;entryX=1;entryY=0;entryDx=0;entryDy=0;" parent="1" source="nODUgDwTMb5YsEz3XIjn-89" target="nODUgDwTMb5YsEz3XIjn-2" edge="1">
          <mxGeometry relative="1" as="geometry" />
        </mxCell>
        <mxCell id="nODUgDwTMb5YsEz3XIjn-89" value="Adivinhar Letra" style="ellipse;whiteSpace=wrap;html=1;" parent="1" vertex="1">
          <mxGeometry x="680" y="-1148" width="120" height="60" as="geometry" />
        </mxCell>
        <mxCell id="nODUgDwTMb5YsEz3XIjn-92" style="edgeStyle=orthogonalEdgeStyle;rounded=0;orthogonalLoop=1;jettySize=auto;html=1;" parent="1" source="nODUgDwTMb5YsEz3XIjn-90" target="nODUgDwTMb5YsEz3XIjn-2" edge="1">
          <mxGeometry relative="1" as="geometry" />
        </mxCell>
        <mxCell id="nODUgDwTMb5YsEz3XIjn-90" value="Adivinhar Palavra" style="ellipse;whiteSpace=wrap;html=1;" parent="1" vertex="1">
          <mxGeometry x="680" y="-1048" width="120" height="60" as="geometry" />
        </mxCell>
        <mxCell id="nODUgDwTMb5YsEz3XIjn-94" value="&lt;div&gt;Pedir Palavra ao&amp;nbsp;&lt;/div&gt;&lt;div&gt;Jogador&lt;/div&gt;" style="ellipse;whiteSpace=wrap;html=1;" parent="1" vertex="1">
          <mxGeometry x="900" y="-1068" width="120" height="60" as="geometry" />
        </mxCell>
        <mxCell id="nODUgDwTMb5YsEz3XIjn-95" value="&amp;lt;&amp;lt;include&amp;gt;&amp;gt;" style="endArrow=open;endSize=12;dashed=1;html=1;rounded=0;exitX=0.997;exitY=0.4;exitDx=0;exitDy=0;entryX=-0.008;entryY=0.431;entryDx=0;entryDy=0;exitPerimeter=0;entryPerimeter=0;" parent="1" source="nODUgDwTMb5YsEz3XIjn-90" target="nODUgDwTMb5YsEz3XIjn-94" edge="1">
          <mxGeometry x="0.0026" width="160" relative="1" as="geometry">
            <mxPoint x="840" y="-1068" as="sourcePoint" />
            <mxPoint x="920" y="-1098" as="targetPoint" />
            <mxPoint as="offset" />
          </mxGeometry>
        </mxCell>
        <mxCell id="nODUgDwTMb5YsEz3XIjn-96" value="&amp;lt;&amp;lt;extends&amp;gt;&amp;gt;" style="endArrow=open;endSize=12;dashed=1;html=1;rounded=0;exitX=0.5;exitY=1;exitDx=0;exitDy=0;" parent="1" source="nODUgDwTMb5YsEz3XIjn-98" edge="1">
          <mxGeometry x="-0.1533" y="-2" width="160" relative="1" as="geometry">
            <mxPoint x="1180" y="-918" as="sourcePoint" />
            <mxPoint x="1340" y="-583" as="targetPoint" />
            <mxPoint x="1" as="offset" />
            <Array as="points">
              <mxPoint x="1120" y="-583" />
            </Array>
          </mxGeometry>
        </mxCell>
        <mxCell id="nODUgDwTMb5YsEz3XIjn-97" value="A palavra está certa" style="shape=note;whiteSpace=wrap;html=1;backgroundOutline=1;darkOpacity=0.05;size=13;" parent="1" vertex="1">
          <mxGeometry x="1070" y="-558" width="140" height="40" as="geometry" />
        </mxCell>
        <mxCell id="nODUgDwTMb5YsEz3XIjn-98" value="Verificar Palavra" style="ellipse;whiteSpace=wrap;html=1;" parent="1" vertex="1">
          <mxGeometry x="1060" y="-978" width="120" height="60" as="geometry" />
        </mxCell>
        <mxCell id="nODUgDwTMb5YsEz3XIjn-99" value="&amp;lt;&amp;lt;include&amp;gt;&amp;gt;" style="endArrow=open;endSize=12;dashed=1;html=1;rounded=0;entryX=0;entryY=0;entryDx=0;entryDy=0;" parent="1" target="nODUgDwTMb5YsEz3XIjn-98" edge="1">
          <mxGeometry x="0.0026" width="160" relative="1" as="geometry">
            <mxPoint x="1002" y="-1017" as="sourcePoint" />
            <mxPoint x="1119" y="-1008" as="targetPoint" />
            <mxPoint as="offset" />
          </mxGeometry>
        </mxCell>
        <mxCell id="nODUgDwTMb5YsEz3XIjn-100" value="&lt;div&gt;Informa ao Jogador que&lt;/div&gt;&lt;div&gt;ele ERROU a Palavra&lt;/div&gt;" style="ellipse;whiteSpace=wrap;html=1;" parent="1" vertex="1">
          <mxGeometry x="910" y="-763" width="170" height="70" as="geometry" />
        </mxCell>
        <mxCell id="nODUgDwTMb5YsEz3XIjn-101" value="&lt;font style=&quot;font-size: 10px;&quot;&gt;Tentativas &amp;gt; 1&lt;/font&gt;" style="shape=note;whiteSpace=wrap;html=1;backgroundOutline=1;darkOpacity=0.05;size=13;" parent="1" vertex="1">
          <mxGeometry x="1760" y="-943" width="100" height="50" as="geometry" />
        </mxCell>
        <mxCell id="nODUgDwTMb5YsEz3XIjn-102" value="&amp;lt;&amp;lt;extends&amp;gt;&amp;gt;" style="endArrow=open;endSize=12;dashed=1;html=1;rounded=0;entryX=1;entryY=0;entryDx=0;entryDy=0;exitX=0;exitY=1;exitDx=0;exitDy=0;" parent="1" source="nODUgDwTMb5YsEz3XIjn-103" target="nODUgDwTMb5YsEz3XIjn-58" edge="1">
          <mxGeometry x="-0.1533" y="-2" width="160" relative="1" as="geometry">
            <mxPoint x="1910" y="-898" as="sourcePoint" />
            <mxPoint x="1860" y="-878" as="targetPoint" />
            <mxPoint x="1" as="offset" />
          </mxGeometry>
        </mxCell>
        <mxCell id="nODUgDwTMb5YsEz3XIjn-103" value="Dimunir Tentativas" style="ellipse;whiteSpace=wrap;html=1;" parent="1" vertex="1">
          <mxGeometry x="1900" y="-948" width="120" height="60" as="geometry" />
        </mxCell>
        <mxCell id="nODUgDwTMb5YsEz3XIjn-104" value="&amp;lt;&amp;lt;extends&amp;gt;&amp;gt;" style="endArrow=open;endSize=12;dashed=1;html=1;rounded=0;entryX=0;entryY=1;entryDx=0;entryDy=0;exitX=0.5;exitY=0;exitDx=0;exitDy=0;" parent="1" source="nODUgDwTMb5YsEz3XIjn-100" target="nODUgDwTMb5YsEz3XIjn-98" edge="1">
          <mxGeometry x="-0.1533" y="-2" width="160" relative="1" as="geometry">
            <mxPoint x="1030.5" y="-846" as="sourcePoint" />
            <mxPoint x="929.5" y="-788" as="targetPoint" />
            <mxPoint x="1" as="offset" />
          </mxGeometry>
        </mxCell>
        <mxCell id="nODUgDwTMb5YsEz3XIjn-105" value="&amp;lt;&amp;lt;include&amp;gt;&amp;gt;" style="endArrow=open;endSize=12;dashed=1;html=1;rounded=0;exitX=0.5;exitY=1;exitDx=0;exitDy=0;entryX=1;entryY=0.5;entryDx=0;entryDy=0;" parent="1" source="nODUgDwTMb5YsEz3XIjn-100" target="nODUgDwTMb5YsEz3XIjn-58" edge="1">
          <mxGeometry x="0.0026" width="160" relative="1" as="geometry">
            <mxPoint x="950" y="-606" as="sourcePoint" />
            <mxPoint x="1850" y="-811" as="targetPoint" />
            <mxPoint as="offset" />
            <Array as="points">
              <mxPoint x="1020" y="-458" />
              <mxPoint x="1930" y="-458" />
              <mxPoint x="1930" y="-818" />
            </Array>
          </mxGeometry>
        </mxCell>
        <mxCell id="nODUgDwTMb5YsEz3XIjn-106" value="A palavra está ERRADA" style="shape=note;whiteSpace=wrap;html=1;backgroundOutline=1;darkOpacity=0.05;size=13;" parent="1" vertex="1">
          <mxGeometry x="840" y="-838" width="150" height="40" as="geometry" />
        </mxCell>
        <mxCell id="nODUgDwTMb5YsEz3XIjn-109" value="&lt;font style=&quot;font-size: 21px;&quot;&gt;&lt;b&gt;SISTEMA DO JOGO DA FORCA&lt;/b&gt;&lt;/font&gt;" style="text;strokeColor=none;align=center;fillColor=none;html=1;verticalAlign=middle;whiteSpace=wrap;rounded=0;" parent="1" vertex="1">
          <mxGeometry x="900" y="-1478" width="575" height="30" as="geometry" />
        </mxCell>
        <mxCell id="nho5SKlC0Wrcys8h44hS-1" value="Pedir ao Jogador se Deseja Continuar" style="ellipse;whiteSpace=wrap;html=1;" vertex="1" parent="1">
          <mxGeometry x="1620" y="-409" width="170" height="70" as="geometry" />
        </mxCell>
        <mxCell id="nho5SKlC0Wrcys8h44hS-2" value="&amp;lt;&amp;lt;include&amp;gt;&amp;gt;" style="endArrow=open;endSize=12;dashed=1;html=1;rounded=0;exitX=0.5;exitY=1;exitDx=0;exitDy=0;entryX=0.5;entryY=0;entryDx=0;entryDy=0;" edge="1" parent="1" source="nODUgDwTMb5YsEz3XIjn-59" target="nho5SKlC0Wrcys8h44hS-1">
          <mxGeometry x="-0.4141" width="160" relative="1" as="geometry">
            <mxPoint x="1680" y="-409" as="sourcePoint" />
            <mxPoint x="1835" y="-389" as="targetPoint" />
            <mxPoint as="offset" />
          </mxGeometry>
        </mxCell>
        <mxCell id="nho5SKlC0Wrcys8h44hS-3" value="&amp;lt;&amp;lt;extends&amp;gt;&amp;gt;" style="endArrow=open;endSize=12;dashed=1;html=1;rounded=0;entryX=0;entryY=0.5;entryDx=0;entryDy=0;exitX=1;exitY=1;exitDx=0;exitDy=0;" edge="1" parent="1" source="nODUgDwTMb5YsEz3XIjn-10" target="nho5SKlC0Wrcys8h44hS-1">
          <mxGeometry x="-0.1533" y="-2" width="160" relative="1" as="geometry">
            <mxPoint x="1050" y="-389" as="sourcePoint" />
            <mxPoint x="1417.5" y="-319" as="targetPoint" />
            <mxPoint x="1" as="offset" />
            <Array as="points">
              <mxPoint x="1040" y="-369" />
            </Array>
          </mxGeometry>
        </mxCell>
        <mxCell id="nho5SKlC0Wrcys8h44hS-4" value="Continuar" style="shape=note;whiteSpace=wrap;html=1;backgroundOutline=1;darkOpacity=0.05;size=13;" vertex="1" parent="1">
          <mxGeometry x="1475" y="-359" width="105" height="40" as="geometry" />
        </mxCell>
        <mxCell id="nho5SKlC0Wrcys8h44hS-5" value="&amp;lt;&amp;lt;extends&amp;gt;&amp;gt;" style="endArrow=open;endSize=12;dashed=1;html=1;rounded=0;exitX=1;exitY=0.5;exitDx=0;exitDy=0;entryX=0.5;entryY=1;entryDx=0;entryDy=0;" edge="1" parent="1" source="nODUgDwTMb5YsEz3XIjn-22" target="nho5SKlC0Wrcys8h44hS-1">
          <mxGeometry x="-0.1552" width="160" relative="1" as="geometry">
            <mxPoint x="1740" y="-228" as="sourcePoint" />
            <mxPoint x="1715" y="-298" as="targetPoint" />
            <mxPoint as="offset" />
            <Array as="points">
              <mxPoint x="810" y="-238" />
              <mxPoint x="810" y="-189" />
              <mxPoint x="1705" y="-189" />
            </Array>
          </mxGeometry>
        </mxCell>
        <mxCell id="nho5SKlC0Wrcys8h44hS-6" value="Não Continuar (Sair)" style="shape=note;whiteSpace=wrap;html=1;backgroundOutline=1;darkOpacity=0.05;size=13;" vertex="1" parent="1">
          <mxGeometry x="1530" y="-244" width="105" height="40" as="geometry" />
        </mxCell>
        <mxCell id="nho5SKlC0Wrcys8h44hS-7" value="" style="rounded=0;whiteSpace=wrap;html=1;fillColor=none;strokeWidth=2;strokeColor=default;" vertex="1" parent="1">
          <mxGeometry x="260" y="-1519" width="1820" height="1385" as="geometry" />
        </mxCell>
      </root>
    </mxGraphModel>
  </diagram>
</mxfile>
